<!DOCTYPE svg PUBLIC "-//W3C//DTD SVG 20010904//EN" "http://www.w3.org/TR/2001/REC-SVG-20010904/DTD/svg10.dtd">
<svg version="1.0" xmlns="http://www.w3.org/2000/svg" width="250px" height="250px" viewBox="0 0 2500 2500" preserveAspectRatio="xMidYMid meet">
<g id="layer1" fill="#fff" stroke="none">
 <path d="M1015 2404 c-188 -65 -225 -80 -252 -110 l-33 -34 0 -539 c0 -565 1 -576 44 -604 26 -17 454 -137 488 -137 27 0 450 115 479 130 50 27 49 14 49 616 l0 561 -23 25 c-17 18 -60 37 -143 63 -65 20 -168 52 -228 71 -60 19 -121 34 -135 33 -14 0 -125 -34 -246 -75z"/>
 <path d="M197 1072 c-15 -16 -17 -53 -17 -305 l0 -287 28 -29 c30 -33 4 -23 586 -240 302 -114 441 -161 470 -161 29 0 190 56 541 188 467 176 501 190 522 222 22 32 23 39 23 310 l0 277 -25 23 -24 23 -505 -152 c-277 -83 -518 -151 -534 -151 -16 0 -112 25 -213 55 -604 182 -818 245 -826 245 -6 0 -17 -8 -26 -18z"/>
 </g>

</svg>